<svg xmlns="http://www.w3.org/2000/svg" version="1.1" xmlns:xlink="http://www.w3.org/1999/xlink" xmlns:svgjs="http://svgjs.dev/svgjs" width="1440" height="400" preserveAspectRatio="none" viewBox="0 0 1440 400"><g mask="url(&quot;#SvgjsMask1142&quot;)" fill="none"><rect width="1440" height="400" x="0" y="0" fill="#0e2a47"></rect><path d="M-97.55 342.35L-97.55 342.35" stroke="#132e65" stroke-width="1.5"></path><path d="M-97.55 342.35L75.85 371.82" stroke="#132e65" stroke-width="1.5"></path><path d="M-97.55 342.35L-82.24 530.93" stroke="#132e65" stroke-width="1.5"></path><path d="M-97.55 342.35L44.48 549.84" stroke="#132e65" stroke-width="1.5"></path><path d="M-97.55 342.35L258.73 364.52" stroke="#132e65" stroke-width="1.5"></path><path d="M-97.55 342.35L353.12 499.17" stroke="#132e65" stroke-width="1.5"></path><path d="M-97.55 342.35L387.19 238.76" stroke="#132e65" stroke-width="1.5"></path><path d="M-82.24 530.93L-82.24 530.93" stroke="#132e65" stroke-width="1.5"></path><path d="M-82.24 530.93L44.48 549.84" stroke="#132e65" stroke-width="1.5"></path><path d="M-82.24 530.93L75.85 371.82" stroke="#132e65" stroke-width="1.5"></path><path d="M-82.24 530.93L258.73 364.52" stroke="#132e65" stroke-width="1.5"></path><path d="M-82.24 530.93L353.12 499.17" stroke="#132e65" stroke-width="1.5"></path><path d="M75.85 371.82L75.85 371.82" stroke="#132e65" stroke-width="1.5"></path><path d="M75.85 371.82L44.48 549.84" stroke="#132e65" stroke-width="1.5"></path><path d="M75.85 371.82L258.73 364.52" stroke="#132e65" stroke-width="1.5"></path><path d="M44.48 549.84L44.48 549.84" stroke="#132e65" stroke-width="1.5"></path><path d="M258.73 364.52L258.73 364.52" stroke="#132e65" stroke-width="1.5"></path><path d="M258.73 364.52L403.91 400.56" stroke="#132e65" stroke-width="1.5"></path><path d="M258.73 364.52L353.12 499.17" stroke="#132e65" stroke-width="1.5"></path><path d="M258.73 364.52L387.19 238.76" stroke="#132e65" stroke-width="1.5"></path><path d="M387.19 238.76L387.19 238.76" stroke="#132e65" stroke-width="1.5"></path><path d="M387.19 238.76L403.91 400.56" stroke="#132e65" stroke-width="1.5"></path><path d="M387.19 238.76L546.43 188.86" stroke="#132e65" stroke-width="1.5"></path><path d="M387.19 238.76L508.78 362.14" stroke="#132e65" stroke-width="1.5"></path><path d="M403.91 400.56L403.91 400.56" stroke="#132e65" stroke-width="1.5"></path><path d="M403.91 400.56L353.12 499.17" stroke="#132e65" stroke-width="1.5"></path><path d="M403.91 400.56L508.78 362.14" stroke="#132e65" stroke-width="1.5"></path><path d="M403.91 400.56L550.72 488.59" stroke="#132e65" stroke-width="1.5"></path><path d="M403.91 400.56L546.43 188.86" stroke="#132e65" stroke-width="1.5"></path><path d="M353.12 499.17L353.12 499.17" stroke="#132e65" stroke-width="1.5"></path><path d="M546.43 188.86L546.43 188.86" stroke="#132e65" stroke-width="1.5"></path><path d="M546.43 188.86L711.51 253.53" stroke="#132e65" stroke-width="1.5"></path><path d="M508.78 362.14L508.78 362.14" stroke="#132e65" stroke-width="1.5"></path><path d="M508.78 362.14L550.72 488.59" stroke="#132e65" stroke-width="1.5"></path><path d="M508.78 362.14L659.63 386.77" stroke="#132e65" stroke-width="1.5"></path><path d="M550.72 488.59L550.72 488.59" stroke="#132e65" stroke-width="1.5"></path><path d="M550.72 488.59L688.72 510.6" stroke="#132e65" stroke-width="1.5"></path><path d="M550.72 488.59L659.63 386.77" stroke="#132e65" stroke-width="1.5"></path><path d="M711.51 253.53L711.51 253.53" stroke="#132e65" stroke-width="1.5"></path><path d="M711.51 253.53L835.47 258.13" stroke="#132e65" stroke-width="1.5"></path><path d="M711.51 253.53L659.63 386.77" stroke="#132e65" stroke-width="1.5"></path><path d="M711.51 253.53L816.76 358.8" stroke="#132e65" stroke-width="1.5"></path><path d="M711.51 253.53L794.62 100.05" stroke="#132e65" stroke-width="1.5"></path><path d="M659.63 386.77L659.63 386.77" stroke="#132e65" stroke-width="1.5"></path><path d="M659.63 386.77L688.72 510.6" stroke="#132e65" stroke-width="1.5"></path><path d="M688.72 510.6L688.72 510.6" stroke="#132e65" stroke-width="1.5"></path><path d="M688.72 510.6L829.61 493.47" stroke="#132e65" stroke-width="1.5"></path><path d="M688.72 510.6L816.76 358.8" stroke="#132e65" stroke-width="1.5"></path><path d="M688.72 510.6L508.78 362.14" stroke="#132e65" stroke-width="1.5"></path><path d="M794.62 100.05L794.62 100.05" stroke="#132e65" stroke-width="1.5"></path><path d="M794.62 100.05L835.47 258.13" stroke="#132e65" stroke-width="1.5"></path><path d="M794.62 100.05L999.22 203.49" stroke="#132e65" stroke-width="1.5"></path><path d="M835.47 258.13L835.47 258.13" stroke="#132e65" stroke-width="1.5"></path><path d="M835.47 258.13L816.76 358.8" stroke="#132e65" stroke-width="1.5"></path><path d="M835.47 258.13L999.22 203.49" stroke="#132e65" stroke-width="1.5"></path><path d="M835.47 258.13L972.12 398.47" stroke="#132e65" stroke-width="1.5"></path><path d="M816.76 358.8L816.76 358.8" stroke="#132e65" stroke-width="1.5"></path><path d="M816.76 358.8L829.61 493.47" stroke="#132e65" stroke-width="1.5"></path><path d="M829.61 493.47L829.61 493.47" stroke="#132e65" stroke-width="1.5"></path><path d="M999.22 203.49L999.22 203.49" stroke="#132e65" stroke-width="1.5"></path><path d="M999.22 203.49L1132.84 230.56" stroke="#132e65" stroke-width="1.5"></path><path d="M999.22 203.49L1117.42 91.04" stroke="#132e65" stroke-width="1.5"></path><path d="M972.12 398.47L972.12 398.47" stroke="#132e65" stroke-width="1.5"></path><path d="M972.12 398.47L980.74 527.12" stroke="#132e65" stroke-width="1.5"></path><path d="M972.12 398.47L816.76 358.8" stroke="#132e65" stroke-width="1.5"></path><path d="M972.12 398.47L829.61 493.47" stroke="#132e65" stroke-width="1.5"></path><path d="M972.12 398.47L1158.74 346.5" stroke="#132e65" stroke-width="1.5"></path><path d="M980.74 527.12L980.74 527.12" stroke="#132e65" stroke-width="1.5"></path><path d="M980.74 527.12L1097.54 553.81" stroke="#132e65" stroke-width="1.5"></path><path d="M980.74 527.12L829.61 493.47" stroke="#132e65" stroke-width="1.5"></path><path d="M1106.63 -46.61L1106.63 -46.61" stroke="#132e65" stroke-width="1.5"></path><path d="M1106.63 -46.61L1117.42 91.04" stroke="#132e65" stroke-width="1.5"></path><path d="M1106.63 -46.61L1308.61 -43.57" stroke="#132e65" stroke-width="1.5"></path><path d="M1106.63 -46.61L1309.05 89.83" stroke="#132e65" stroke-width="1.5"></path><path d="M1106.63 -46.61L999.22 203.49" stroke="#132e65" stroke-width="1.5"></path><path d="M1106.63 -46.61L1132.84 230.56" stroke="#132e65" stroke-width="1.5"></path><path d="M1106.63 -46.61L1402.12 -103.26" stroke="#132e65" stroke-width="1.5"></path><path d="M1117.42 91.04L1117.42 91.04" stroke="#132e65" stroke-width="1.5"></path><path d="M1117.42 91.04L1132.84 230.56" stroke="#132e65" stroke-width="1.5"></path><path d="M1132.84 230.56L1132.84 230.56" stroke="#132e65" stroke-width="1.5"></path><path d="M1132.84 230.56L1158.74 346.5" stroke="#132e65" stroke-width="1.5"></path><path d="M1158.74 346.5L1158.74 346.5" stroke="#132e65" stroke-width="1.5"></path><path d="M1158.74 346.5L1270.41 355.34" stroke="#132e65" stroke-width="1.5"></path><path d="M1158.74 346.5L1283.18 246.78" stroke="#132e65" stroke-width="1.5"></path><path d="M1158.74 346.5L999.22 203.49" stroke="#132e65" stroke-width="1.5"></path><path d="M1158.74 346.5L1097.54 553.81" stroke="#132e65" stroke-width="1.5"></path><path d="M1097.54 553.81L1097.54 553.81" stroke="#132e65" stroke-width="1.5"></path><path d="M1097.54 553.81L1271.04 556.07" stroke="#132e65" stroke-width="1.5"></path><path d="M1308.61 -43.57L1308.61 -43.57" stroke="#132e65" stroke-width="1.5"></path><path d="M1308.61 -43.57L1402.12 -103.26" stroke="#132e65" stroke-width="1.5"></path><path d="M1308.61 -43.57L1390.32 60.74" stroke="#132e65" stroke-width="1.5"></path><path d="M1308.61 -43.57L1309.05 89.83" stroke="#132e65" stroke-width="1.5"></path><path d="M1309.05 89.83L1309.05 89.83" stroke="#132e65" stroke-width="1.5"></path><path d="M1309.05 89.83L1390.32 60.74" stroke="#132e65" stroke-width="1.5"></path><path d="M1309.05 89.83L1398.66 219.4" stroke="#132e65" stroke-width="1.5"></path><path d="M1309.05 89.83L1283.18 246.78" stroke="#132e65" stroke-width="1.5"></path><path d="M1309.05 89.83L1117.42 91.04" stroke="#132e65" stroke-width="1.5"></path><path d="M1309.05 89.83L1402.12 -103.26" stroke="#132e65" stroke-width="1.5"></path><path d="M1283.18 246.78L1283.18 246.78" stroke="#132e65" stroke-width="1.5"></path><path d="M1283.18 246.78L1270.41 355.34" stroke="#132e65" stroke-width="1.5"></path><path d="M1283.18 246.78L1398.66 219.4" stroke="#132e65" stroke-width="1.5"></path><path d="M1283.18 246.78L1132.84 230.56" stroke="#132e65" stroke-width="1.5"></path><path d="M1283.18 246.78L1406.09 394.97" stroke="#132e65" stroke-width="1.5"></path><path d="M1270.41 355.34L1270.41 355.34" stroke="#132e65" stroke-width="1.5"></path><path d="M1270.41 355.34L1406.09 394.97" stroke="#132e65" stroke-width="1.5"></path><path d="M1270.41 355.34L1132.84 230.56" stroke="#132e65" stroke-width="1.5"></path><path d="M1271.04 556.07L1271.04 556.07" stroke="#132e65" stroke-width="1.5"></path><path d="M1271.04 556.07L1408.4 490.21" stroke="#132e65" stroke-width="1.5"></path><path d="M1271.04 556.07L1270.41 355.34" stroke="#132e65" stroke-width="1.5"></path><path d="M1271.04 556.07L1406.09 394.97" stroke="#132e65" stroke-width="1.5"></path><path d="M1271.04 556.07L1158.74 346.5" stroke="#132e65" stroke-width="1.5"></path><path d="M1271.04 556.07L1542.44 531.32" stroke="#132e65" stroke-width="1.5"></path><path d="M1402.12 -103.26L1402.12 -103.26" stroke="#132e65" stroke-width="1.5"></path><path d="M1402.12 -103.26L1390.32 60.74" stroke="#132e65" stroke-width="1.5"></path><path d="M1402.12 -103.26L1578.76 94.79" stroke="#132e65" stroke-width="1.5"></path><path d="M1402.12 -103.26L1398.66 219.4" stroke="#132e65" stroke-width="1.5"></path><path d="M1390.32 60.74L1390.32 60.74" stroke="#132e65" stroke-width="1.5"></path><path d="M1390.32 60.74L1398.66 219.4" stroke="#132e65" stroke-width="1.5"></path><path d="M1398.66 219.4L1398.66 219.4" stroke="#132e65" stroke-width="1.5"></path><path d="M1398.66 219.4L1406.09 394.97" stroke="#132e65" stroke-width="1.5"></path><path d="M1398.66 219.4L1270.41 355.34" stroke="#132e65" stroke-width="1.5"></path><path d="M1398.66 219.4L1610.81 261.59" stroke="#132e65" stroke-width="1.5"></path><path d="M1406.09 394.97L1406.09 394.97" stroke="#132e65" stroke-width="1.5"></path><path d="M1406.09 394.97L1408.4 490.21" stroke="#132e65" stroke-width="1.5"></path><path d="M1408.4 490.21L1408.4 490.21" stroke="#132e65" stroke-width="1.5"></path><path d="M1408.4 490.21L1542.44 531.32" stroke="#132e65" stroke-width="1.5"></path><path d="M1408.4 490.21L1270.41 355.34" stroke="#132e65" stroke-width="1.5"></path><path d="M1408.4 490.21L1598.15 400.39" stroke="#132e65" stroke-width="1.5"></path><path d="M1408.4 490.21L1398.66 219.4" stroke="#132e65" stroke-width="1.5"></path><path d="M1578.76 94.79L1578.76 94.79" stroke="#132e65" stroke-width="1.5"></path><path d="M1578.76 94.79L1610.81 261.59" stroke="#132e65" stroke-width="1.5"></path><path d="M1578.76 94.79L1390.32 60.74" stroke="#132e65" stroke-width="1.5"></path><path d="M1578.76 94.79L1398.66 219.4" stroke="#132e65" stroke-width="1.5"></path><path d="M1610.81 261.59L1610.81 261.59" stroke="#132e65" stroke-width="1.5"></path><path d="M1610.81 261.59L1598.15 400.39" stroke="#132e65" stroke-width="1.5"></path><path d="M1610.81 261.59L1406.09 394.97" stroke="#132e65" stroke-width="1.5"></path><path d="M1610.81 261.59L1542.44 531.32" stroke="#132e65" stroke-width="1.5"></path><path d="M1610.81 261.59L1390.32 60.74" stroke="#132e65" stroke-width="1.5"></path><path d="M1598.15 400.39L1598.15 400.39" stroke="#132e65" stroke-width="1.5"></path><path d="M1598.15 400.39L1542.44 531.32" stroke="#132e65" stroke-width="1.5"></path><path d="M1598.15 400.39L1406.09 394.97" stroke="#132e65" stroke-width="1.5"></path><path d="M1542.44 531.32L1542.44 531.32" stroke="#132e65" stroke-width="1.5"></path><path d="M1542.44 531.32L1406.09 394.97" stroke="#132e65" stroke-width="1.5"></path><circle r="5" cx="-97.55" cy="342.35" fill="#132e65"></circle><circle r="5" cx="-82.24" cy="530.93" fill="#132e65"></circle><circle r="5" cx="75.85" cy="371.82" fill="#132e65"></circle><circle r="5" cx="44.48" cy="549.84" fill="#132e65"></circle><circle r="5" cx="258.73" cy="364.52" fill="#132e65"></circle><circle r="5" cx="387.19" cy="238.76" fill="#132e65"></circle><circle r="5" cx="403.91" cy="400.56" fill="#132e65"></circle><circle r="5" cx="353.12" cy="499.17" fill="#132e65"></circle><circle r="5" cx="546.43" cy="188.86" fill="#132e65"></circle><circle r="5" cx="508.78" cy="362.14" fill="#132e65"></circle><circle r="5" cx="550.72" cy="488.59" fill="#132e65"></circle><circle r="5" cx="711.51" cy="253.53" fill="#132e65"></circle><circle r="5" cx="659.63" cy="386.77" fill="#132e65"></circle><circle r="5" cx="688.72" cy="510.6" fill="#132e65"></circle><circle r="5" cx="794.62" cy="100.05" fill="#132e65"></circle><circle r="5" cx="835.47" cy="258.13" fill="#132e65"></circle><circle r="5" cx="816.76" cy="358.8" fill="#132e65"></circle><circle r="5" cx="829.61" cy="493.47" fill="#132e65"></circle><circle r="5" cx="999.22" cy="203.49" fill="#132e65"></circle><circle r="5" cx="972.12" cy="398.47" fill="#132e65"></circle><circle r="5" cx="980.74" cy="527.12" fill="#132e65"></circle><circle r="5" cx="1106.63" cy="-46.61" fill="#132e65"></circle><circle r="5" cx="1117.42" cy="91.04" fill="#132e65"></circle><circle r="5" cx="1132.84" cy="230.56" fill="#132e65"></circle><circle r="5" cx="1158.74" cy="346.5" fill="#132e65"></circle><circle r="5" cx="1097.54" cy="553.81" fill="#132e65"></circle><circle r="5" cx="1308.61" cy="-43.57" fill="#132e65"></circle><circle r="5" cx="1309.05" cy="89.83" fill="#132e65"></circle><circle r="5" cx="1283.18" cy="246.78" fill="#132e65"></circle><circle r="5" cx="1270.41" cy="355.34" fill="#132e65"></circle><circle r="5" cx="1271.04" cy="556.07" fill="#132e65"></circle><circle r="5" cx="1402.12" cy="-103.26" fill="#132e65"></circle><circle r="5" cx="1390.32" cy="60.74" fill="#132e65"></circle><circle r="5" cx="1398.66" cy="219.4" fill="#132e65"></circle><circle r="5" cx="1406.09" cy="394.97" fill="#132e65"></circle><circle r="5" cx="1408.4" cy="490.21" fill="#132e65"></circle><circle r="5" cx="1578.76" cy="94.79" fill="#132e65"></circle><circle r="5" cx="1610.81" cy="261.59" fill="#132e65"></circle><circle r="5" cx="1598.15" cy="400.39" fill="#132e65"></circle><circle r="5" cx="1542.44" cy="531.32" fill="#132e65"></circle><path d="M90.38 528.88L90.38 528.88" stroke="hsl(228.5, 77.2%, 51.5%)" stroke-width="1.5"></path><path d="M90.38 528.88L197.45 545.3" stroke="hsl(228.5, 77.2%, 51.5%)" stroke-width="1.5"></path><path d="M90.38 528.88L85.7 367.62" stroke="hsl(228.5, 77.2%, 51.5%)" stroke-width="1.5"></path><path d="M90.38 528.88L-81.63 512.22" stroke="hsl(228.5, 77.2%, 51.5%)" stroke-width="1.5"></path><path d="M90.38 528.88L-57.89 380.74" stroke="hsl(228.5, 77.2%, 51.5%)" stroke-width="1.5"></path><path d="M90.38 528.88L259.9 363.39" stroke="hsl(228.5, 77.2%, 51.5%)" stroke-width="1.5"></path><path d="M498.04 549.44L498.04 549.44" stroke="hsl(228.5, 77.2%, 51.5%)" stroke-width="1.5"></path><path d="M498.04 549.44L525.14 388.96" stroke="hsl(228.5, 77.2%, 51.5%)" stroke-width="1.5"></path><path d="M982.88 189.62L982.88 189.62" stroke="hsl(228.5, 77.2%, 51.5%)" stroke-width="1.5"></path><path d="M982.88 189.62L1120.31 226.67" stroke="hsl(228.5, 77.2%, 51.5%)" stroke-width="1.5"></path><path d="M982.88 189.62L1102.95 108.23" stroke="hsl(228.5, 77.2%, 51.5%)" stroke-width="1.5"></path><path d="M982.88 189.62L993.21 381.75" stroke="hsl(228.5, 77.2%, 51.5%)" stroke-width="1.5"></path><path d="M1267.76 37.52L1267.76 37.52" stroke="hsl(228.5, 77.2%, 51.5%)" stroke-width="1.5"></path><path d="M1267.76 37.52L1290.34 -74.91" stroke="hsl(228.5, 77.2%, 51.5%)" stroke-width="1.5"></path><path d="M1267.76 37.52L1419.14 54.46" stroke="hsl(228.5, 77.2%, 51.5%)" stroke-width="1.5"></path><path d="M1267.76 37.52L1396.63 -55.75" stroke="hsl(228.5, 77.2%, 51.5%)" stroke-width="1.5"></path><path d="M1267.76 37.52L1102.95 108.23" stroke="hsl(228.5, 77.2%, 51.5%)" stroke-width="1.5"></path><path d="M1566.38 100.4L1566.38 100.4" stroke="hsl(228.5, 77.2%, 51.5%)" stroke-width="1.5"></path><path d="M1566.38 100.4L1594.49 219.18" stroke="hsl(228.5, 77.2%, 51.5%)" stroke-width="1.5"></path><path d="M1566.38 100.4L1419.14 54.46" stroke="hsl(228.5, 77.2%, 51.5%)" stroke-width="1.5"></path><path d="M1566.38 100.4L1396.63 -55.75" stroke="hsl(228.5, 77.2%, 51.5%)" stroke-width="1.5"></path><path d="M1566.38 100.4L1607.82 394.04" stroke="hsl(228.5, 77.2%, 51.5%)" stroke-width="1.5"></path><path d="M1566.38 100.4L1267.76 37.52" stroke="hsl(228.5, 77.2%, 51.5%)" stroke-width="1.5"></path><path d="M1566.38 100.4L1290.34 -74.91" stroke="hsl(228.5, 77.2%, 51.5%)" stroke-width="1.5"></path><path d="M-57.89 380.74L-57.89 380.74" stroke="hsl(228.5, 77.2%, 51.5%)" stroke-width="1.5"></path><path d="M-57.89 380.74L-81.63 512.22" stroke="hsl(228.5, 77.2%, 51.5%)" stroke-width="1.5"></path><path d="M-57.89 380.74L85.7 367.62" stroke="hsl(228.5, 77.2%, 51.5%)" stroke-width="1.5"></path><path d="M-57.89 380.74L197.45 545.3" stroke="hsl(228.5, 77.2%, 51.5%)" stroke-width="1.5"></path><path d="M-81.63 512.22L-81.63 512.22" stroke="hsl(228.5, 77.2%, 51.5%)" stroke-width="1.5"></path><path d="M-81.63 512.22L85.7 367.62" stroke="hsl(228.5, 77.2%, 51.5%)" stroke-width="1.5"></path><path d="M-81.63 512.22L197.45 545.3" stroke="hsl(228.5, 77.2%, 51.5%)" stroke-width="1.5"></path><path d="M85.7 367.62L85.7 367.62" stroke="hsl(228.5, 77.2%, 51.5%)" stroke-width="1.5"></path><path d="M85.7 367.62L259.9 363.39" stroke="hsl(228.5, 77.2%, 51.5%)" stroke-width="1.5"></path><path d="M85.7 367.62L197.45 545.3" stroke="hsl(228.5, 77.2%, 51.5%)" stroke-width="1.5"></path><path d="M259.9 363.39L259.9 363.39" stroke="hsl(228.5, 77.2%, 51.5%)" stroke-width="1.5"></path><path d="M259.9 363.39L375.51 383.71" stroke="hsl(228.5, 77.2%, 51.5%)" stroke-width="1.5"></path><path d="M197.45 545.3L197.45 545.3" stroke="hsl(228.5, 77.2%, 51.5%)" stroke-width="1.5"></path><path d="M197.45 545.3L259.9 363.39" stroke="hsl(228.5, 77.2%, 51.5%)" stroke-width="1.5"></path><path d="M375.51 383.71L375.51 383.71" stroke="hsl(228.5, 77.2%, 51.5%)" stroke-width="1.5"></path><path d="M375.51 383.71L525.14 388.96" stroke="hsl(228.5, 77.2%, 51.5%)" stroke-width="1.5"></path><path d="M375.51 383.71L498.04 549.44" stroke="hsl(228.5, 77.2%, 51.5%)" stroke-width="1.5"></path><path d="M525.14 388.96L525.14 388.96" stroke="hsl(228.5, 77.2%, 51.5%)" stroke-width="1.5"></path><path d="M525.14 388.96L639.44 354.68" stroke="hsl(228.5, 77.2%, 51.5%)" stroke-width="1.5"></path><path d="M525.14 388.96L663.05 516.61" stroke="hsl(228.5, 77.2%, 51.5%)" stroke-width="1.5"></path><path d="M525.14 388.96L259.9 363.39" stroke="hsl(228.5, 77.2%, 51.5%)" stroke-width="1.5"></path><path d="M639.44 354.68L639.44 354.68" stroke="hsl(228.5, 77.2%, 51.5%)" stroke-width="1.5"></path><path d="M639.44 354.68L663.05 516.61" stroke="hsl(228.5, 77.2%, 51.5%)" stroke-width="1.5"></path><path d="M663.05 516.61L663.05 516.61" stroke="hsl(228.5, 77.2%, 51.5%)" stroke-width="1.5"></path><path d="M663.05 516.61L498.04 549.44" stroke="hsl(228.5, 77.2%, 51.5%)" stroke-width="1.5"></path><path d="M663.05 516.61L833.92 540.88" stroke="hsl(228.5, 77.2%, 51.5%)" stroke-width="1.5"></path><path d="M834.12 340.16L834.12 340.16" stroke="hsl(228.5, 77.2%, 51.5%)" stroke-width="1.5"></path><path d="M834.12 340.16L993.21 381.75" stroke="hsl(228.5, 77.2%, 51.5%)" stroke-width="1.5"></path><path d="M834.12 340.16L639.44 354.68" stroke="hsl(228.5, 77.2%, 51.5%)" stroke-width="1.5"></path><path d="M834.12 340.16L833.92 540.88" stroke="hsl(228.5, 77.2%, 51.5%)" stroke-width="1.5"></path><path d="M833.92 540.88L833.92 540.88" stroke="hsl(228.5, 77.2%, 51.5%)" stroke-width="1.5"></path><path d="M833.92 540.88L982.91 520.88" stroke="hsl(228.5, 77.2%, 51.5%)" stroke-width="1.5"></path><path d="M833.92 540.88L993.21 381.75" stroke="hsl(228.5, 77.2%, 51.5%)" stroke-width="1.5"></path><path d="M833.92 540.88L639.44 354.68" stroke="hsl(228.5, 77.2%, 51.5%)" stroke-width="1.5"></path><path d="M833.92 540.88L1112.22 550.29" stroke="hsl(228.5, 77.2%, 51.5%)" stroke-width="1.5"></path><path d="M993.21 381.75L993.21 381.75" stroke="hsl(228.5, 77.2%, 51.5%)" stroke-width="1.5"></path><path d="M993.21 381.75L1122.22 411.71" stroke="hsl(228.5, 77.2%, 51.5%)" stroke-width="1.5"></path><path d="M982.91 520.88L982.91 520.88" stroke="hsl(228.5, 77.2%, 51.5%)" stroke-width="1.5"></path><path d="M982.91 520.88L1112.22 550.29" stroke="hsl(228.5, 77.2%, 51.5%)" stroke-width="1.5"></path><path d="M982.91 520.88L993.21 381.75" stroke="hsl(228.5, 77.2%, 51.5%)" stroke-width="1.5"></path><path d="M982.91 520.88L1122.22 411.71" stroke="hsl(228.5, 77.2%, 51.5%)" stroke-width="1.5"></path><path d="M1102.95 108.23L1102.95 108.23" stroke="hsl(228.5, 77.2%, 51.5%)" stroke-width="1.5"></path><path d="M1102.95 108.23L1120.31 226.67" stroke="hsl(228.5, 77.2%, 51.5%)" stroke-width="1.5"></path><path d="M1102.95 108.23L1260.68 230.43" stroke="hsl(228.5, 77.2%, 51.5%)" stroke-width="1.5"></path><path d="M1102.95 108.23L1290.34 -74.91" stroke="hsl(228.5, 77.2%, 51.5%)" stroke-width="1.5"></path><path d="M1102.95 108.23L993.21 381.75" stroke="hsl(228.5, 77.2%, 51.5%)" stroke-width="1.5"></path><path d="M1120.31 226.67L1120.31 226.67" stroke="hsl(228.5, 77.2%, 51.5%)" stroke-width="1.5"></path><path d="M1120.31 226.67L1260.68 230.43" stroke="hsl(228.5, 77.2%, 51.5%)" stroke-width="1.5"></path><path d="M1120.31 226.67L1122.22 411.71" stroke="hsl(228.5, 77.2%, 51.5%)" stroke-width="1.5"></path><path d="M1122.22 411.71L1122.22 411.71" stroke="hsl(228.5, 77.2%, 51.5%)" stroke-width="1.5"></path><path d="M1122.22 411.71L1112.22 550.29" stroke="hsl(228.5, 77.2%, 51.5%)" stroke-width="1.5"></path><path d="M1122.22 411.71L1310.32 391.67" stroke="hsl(228.5, 77.2%, 51.5%)" stroke-width="1.5"></path><path d="M1112.22 550.29L1112.22 550.29" stroke="hsl(228.5, 77.2%, 51.5%)" stroke-width="1.5"></path><path d="M1112.22 550.29L1312.5 528.55" stroke="hsl(228.5, 77.2%, 51.5%)" stroke-width="1.5"></path><path d="M1112.22 550.29L993.21 381.75" stroke="hsl(228.5, 77.2%, 51.5%)" stroke-width="1.5"></path><path d="M1112.22 550.29L1310.32 391.67" stroke="hsl(228.5, 77.2%, 51.5%)" stroke-width="1.5"></path><path d="M1290.34 -74.91L1290.34 -74.91" stroke="hsl(228.5, 77.2%, 51.5%)" stroke-width="1.5"></path><path d="M1290.34 -74.91L1396.63 -55.75" stroke="hsl(228.5, 77.2%, 51.5%)" stroke-width="1.5"></path><path d="M1290.34 -74.91L1419.14 54.46" stroke="hsl(228.5, 77.2%, 51.5%)" stroke-width="1.5"></path><path d="M1260.68 230.43L1260.68 230.43" stroke="hsl(228.5, 77.2%, 51.5%)" stroke-width="1.5"></path><path d="M1260.68 230.43L1310.32 391.67" stroke="hsl(228.5, 77.2%, 51.5%)" stroke-width="1.5"></path><path d="M1310.32 391.67L1310.32 391.67" stroke="hsl(228.5, 77.2%, 51.5%)" stroke-width="1.5"></path><path d="M1310.32 391.67L1432.63 403.94" stroke="hsl(228.5, 77.2%, 51.5%)" stroke-width="1.5"></path><path d="M1310.32 391.67L1312.5 528.55" stroke="hsl(228.5, 77.2%, 51.5%)" stroke-width="1.5"></path><path d="M1310.32 391.67L1447.94 491.57" stroke="hsl(228.5, 77.2%, 51.5%)" stroke-width="1.5"></path><path d="M1312.5 528.55L1312.5 528.55" stroke="hsl(228.5, 77.2%, 51.5%)" stroke-width="1.5"></path><path d="M1312.5 528.55L1447.94 491.57" stroke="hsl(228.5, 77.2%, 51.5%)" stroke-width="1.5"></path><path d="M1396.63 -55.75L1396.63 -55.75" stroke="hsl(228.5, 77.2%, 51.5%)" stroke-width="1.5"></path><path d="M1396.63 -55.75L1419.14 54.46" stroke="hsl(228.5, 77.2%, 51.5%)" stroke-width="1.5"></path><path d="M1396.63 -55.75L1260.68 230.43" stroke="hsl(228.5, 77.2%, 51.5%)" stroke-width="1.5"></path><path d="M1419.14 54.46L1419.14 54.46" stroke="hsl(228.5, 77.2%, 51.5%)" stroke-width="1.5"></path><path d="M1432.63 403.94L1432.63 403.94" stroke="hsl(228.5, 77.2%, 51.5%)" stroke-width="1.5"></path><path d="M1432.63 403.94L1447.94 491.57" stroke="hsl(228.5, 77.2%, 51.5%)" stroke-width="1.5"></path><path d="M1432.63 403.94L1575.39 489.3" stroke="hsl(228.5, 77.2%, 51.5%)" stroke-width="1.5"></path><path d="M1432.63 403.94L1312.5 528.55" stroke="hsl(228.5, 77.2%, 51.5%)" stroke-width="1.5"></path><path d="M1447.94 491.57L1447.94 491.57" stroke="hsl(228.5, 77.2%, 51.5%)" stroke-width="1.5"></path><path d="M1447.94 491.57L1575.39 489.3" stroke="hsl(228.5, 77.2%, 51.5%)" stroke-width="1.5"></path><path d="M1594.49 219.18L1594.49 219.18" stroke="hsl(228.5, 77.2%, 51.5%)" stroke-width="1.5"></path><path d="M1594.49 219.18L1607.82 394.04" stroke="hsl(228.5, 77.2%, 51.5%)" stroke-width="1.5"></path><path d="M1594.49 219.18L1419.14 54.46" stroke="hsl(228.5, 77.2%, 51.5%)" stroke-width="1.5"></path><path d="M1594.49 219.18L1432.63 403.94" stroke="hsl(228.5, 77.2%, 51.5%)" stroke-width="1.5"></path><path d="M1594.49 219.18L1575.39 489.3" stroke="hsl(228.5, 77.2%, 51.5%)" stroke-width="1.5"></path><path d="M1594.49 219.18L1447.94 491.57" stroke="hsl(228.5, 77.2%, 51.5%)" stroke-width="1.5"></path><path d="M1607.82 394.04L1607.82 394.04" stroke="hsl(228.5, 77.2%, 51.5%)" stroke-width="1.5"></path><path d="M1607.82 394.04L1575.39 489.3" stroke="hsl(228.5, 77.2%, 51.5%)" stroke-width="1.5"></path><path d="M1607.82 394.04L1432.63 403.94" stroke="hsl(228.5, 77.2%, 51.5%)" stroke-width="1.5"></path><path d="M1607.82 394.04L1447.94 491.57" stroke="hsl(228.5, 77.2%, 51.5%)" stroke-width="1.5"></path><path d="M1607.82 394.04L1310.32 391.67" stroke="hsl(228.5, 77.2%, 51.5%)" stroke-width="1.5"></path><path d="M1575.39 489.3L1575.39 489.3" stroke="hsl(228.5, 77.2%, 51.5%)" stroke-width="1.5"></path><path d="M1575.39 489.3L1312.5 528.55" stroke="hsl(228.5, 77.2%, 51.5%)" stroke-width="1.5"></path><circle r="25" cx="90.38" cy="528.88" fill="url(&quot;#SvgjsRadialGradient1143&quot;)"></circle><circle r="25" cx="498.04" cy="549.44" fill="url(&quot;#SvgjsRadialGradient1143&quot;)"></circle><circle r="25" cx="982.88" cy="189.62" fill="url(&quot;#SvgjsRadialGradient1143&quot;)"></circle><circle r="25" cx="1267.76" cy="37.52" fill="url(&quot;#SvgjsRadialGradient1143&quot;)"></circle><circle r="25" cx="1566.38" cy="100.4" fill="url(&quot;#SvgjsRadialGradient1143&quot;)"></circle><circle r="5" cx="-57.89" cy="380.74" fill="#8b9ad9"></circle><circle r="5" cx="-81.63" cy="512.22" fill="#8b9ad9"></circle><circle r="5" cx="85.7" cy="367.62" fill="#8b9ad9"></circle><circle r="5" cx="259.9" cy="363.39" fill="#8b9ad9"></circle><circle r="5" cx="197.45" cy="545.3" fill="#8b9ad9"></circle><circle r="5" cx="375.51" cy="383.71" fill="#8b9ad9"></circle><circle r="5" cx="525.14" cy="388.96" fill="#8b9ad9"></circle><circle r="5" cx="639.44" cy="354.68" fill="#8b9ad9"></circle><circle r="5" cx="663.05" cy="516.61" fill="#8b9ad9"></circle><circle r="5" cx="834.12" cy="340.16" fill="#8b9ad9"></circle><circle r="5" cx="833.92" cy="540.88" fill="#8b9ad9"></circle><circle r="5" cx="993.21" cy="381.75" fill="#8b9ad9"></circle><circle r="5" cx="982.91" cy="520.88" fill="#8b9ad9"></circle><circle r="5" cx="1102.95" cy="108.23" fill="#8b9ad9"></circle><circle r="5" cx="1120.31" cy="226.67" fill="#8b9ad9"></circle><circle r="5" cx="1122.22" cy="411.71" fill="#8b9ad9"></circle><circle r="5" cx="1112.22" cy="550.29" fill="#8b9ad9"></circle><circle r="5" cx="1290.34" cy="-74.91" fill="#8b9ad9"></circle><circle r="5" cx="1260.68" cy="230.43" fill="#8b9ad9"></circle><circle r="5" cx="1310.32" cy="391.67" fill="#8b9ad9"></circle><circle r="5" cx="1312.5" cy="528.55" fill="#8b9ad9"></circle><circle r="5" cx="1396.63" cy="-55.75" fill="#8b9ad9"></circle><circle r="5" cx="1419.14" cy="54.46" fill="#8b9ad9"></circle><circle r="5" cx="1432.63" cy="403.94" fill="#8b9ad9"></circle><circle r="5" cx="1447.94" cy="491.57" fill="#8b9ad9"></circle><circle r="5" cx="1594.49" cy="219.18" fill="#8b9ad9"></circle><circle r="5" cx="1607.82" cy="394.04" fill="#8b9ad9"></circle><circle r="5" cx="1575.39" cy="489.3" fill="#8b9ad9"></circle></g><defs><mask id="SvgjsMask1142"><rect width="1440" height="400" fill="#ffffff"></rect></mask><radialGradient id="SvgjsRadialGradient1143"><stop stop-color="#ffffff" offset="0.1"></stop><stop stop-color="#1735b3" offset="0.2"></stop><stop stop-color="rgba(23, 53, 179, 0)" offset="1"></stop></radialGradient></defs></svg>